<svg width="561" height="192" viewBox="0 0 561 192" fill="none" xmlns="http://www.w3.org/2000/svg">
<path d="M268.19 13.4964V54.1118H261.367V15.6626L263.587 15.7709L244.687 54.1118H237.052L218.152 15.825L220.372 15.7167V54.1118H213.549V13.4964H224.488L242.684 51.025H239.11L257.251 13.4964H268.19ZM304.686 54.1118L303.494 42.7395L304.902 38.7863L303.494 34.8872L304.686 23.4607H311.942L310.318 38.7863L311.942 54.1118H304.686ZM306.852 38.7863C306.166 41.9994 305.029 44.8154 303.44 47.2343C301.852 49.6531 299.884 51.5305 297.537 52.8663C295.227 54.2021 292.645 54.87 289.793 54.87C286.797 54.87 284.143 54.2021 281.833 52.8663C279.522 51.4944 277.717 49.599 276.417 47.1801C275.118 44.7613 274.468 41.9633 274.468 38.7863C274.468 35.5731 275.118 32.7752 276.417 30.3924C277.717 27.9736 279.522 26.0962 281.833 24.7604C284.143 23.3885 286.797 22.7026 289.793 22.7026C292.645 22.7026 295.227 23.3705 297.537 24.7063C299.884 26.0421 301.852 27.9194 303.44 30.3383C305.065 32.721 306.202 35.537 306.852 38.7863ZM281.616 38.7863C281.616 40.8441 282.031 42.6673 282.862 44.2558C283.728 45.8082 284.901 47.0357 286.382 47.9383C287.862 48.8047 289.559 49.238 291.472 49.238C293.422 49.238 295.227 48.8047 296.887 47.9383C298.548 47.0357 300.01 45.8082 301.274 44.2558C302.574 42.6673 303.603 40.8441 304.361 38.7863C303.603 36.7284 302.574 34.9233 301.274 33.3709C300.01 31.7824 298.548 30.5549 296.887 29.6884C295.227 28.7859 293.422 28.3346 291.472 28.3346C289.559 28.3346 287.862 28.7859 286.382 29.6884C284.901 30.5549 283.728 31.7824 282.862 33.3709C282.031 34.9233 281.616 36.7284 281.616 38.7863ZM317.255 23.4607H324.295L326.136 34.6164V54.1118H319.096V33.2626L317.255 23.4607ZM341.679 23.2441V29.4177C340.884 29.201 340.018 29.0386 339.079 28.9303C338.141 28.822 337.256 28.7678 336.426 28.7678C334.44 28.7678 332.671 29.201 331.119 30.0675C329.566 30.934 328.339 32.2337 327.436 33.9666C326.57 35.6634 326.136 37.7574 326.136 40.2484L324.512 38.2447C324.656 36.0786 325.017 34.0568 325.595 32.1795C326.209 30.2661 327.039 28.6053 328.086 27.1974C329.169 25.7893 330.487 24.6882 332.039 23.894C333.592 23.0997 335.397 22.7026 337.455 22.7026C338.177 22.7026 338.917 22.7567 339.675 22.865C340.433 22.9372 341.101 23.0636 341.679 23.2441ZM353.152 47.9924L351.094 47.2343L370.589 23.4607H378.712L352.664 54.1118H346.112V12.4133H353.152V47.9924ZM361.87 38.9487L366.798 34.5081L379.633 54.1118H371.347L361.87 38.9487ZM410.563 54.1118L409.372 42.4687L410.942 38.8404L409.426 34.6706L411.7 12.4133H418.957L416.195 38.353L417.766 54.1118H410.563ZM412.621 38.7863C411.935 41.9994 410.798 44.8154 409.209 47.2343C407.621 49.6531 405.653 51.5305 403.307 52.8663C400.996 54.2021 398.415 54.87 395.563 54.87C392.566 54.87 389.913 54.2021 387.602 52.8663C385.291 51.4944 383.486 49.599 382.187 47.1801C380.887 44.7613 380.237 41.9633 380.237 38.7863C380.237 35.5731 380.887 32.7752 382.187 30.3924C383.486 27.9736 385.291 26.0962 387.602 24.7604C389.913 23.3885 392.566 22.7026 395.563 22.7026C398.415 22.7026 400.996 23.3705 403.307 24.7063C405.653 26.0421 407.621 27.9194 409.209 30.3383C410.834 32.721 411.971 35.537 412.621 38.7863ZM387.385 38.7863C387.385 40.8441 387.801 42.6673 388.631 44.2558C389.497 45.8082 390.671 47.0357 392.151 47.9383C393.631 48.8047 395.328 49.238 397.241 49.238C399.191 49.238 400.996 48.8047 402.657 47.9383C404.317 47.0357 405.78 45.8082 407.043 44.2558C408.343 42.6673 409.372 40.8441 410.13 38.7863C409.372 36.7284 408.343 34.9233 407.043 33.3709C405.78 31.7824 404.317 30.5549 402.657 29.6884C400.996 28.7859 399.191 28.3346 397.241 28.3346C395.328 28.3346 393.631 28.7859 392.151 29.6884C390.671 30.5549 389.497 31.7824 388.631 33.3709C387.801 34.9233 387.385 36.7284 387.385 38.7863ZM441.49 54.87C437.771 54.87 434.504 54.2021 431.688 52.8663C428.908 51.4944 426.724 49.599 425.135 47.1801C423.583 44.7613 422.807 41.9633 422.807 38.7863C422.807 35.5731 423.583 32.7752 425.135 30.3924C426.724 27.9736 428.908 26.0962 431.688 24.7604C434.504 23.3885 437.771 22.7026 441.49 22.7026C445.208 22.7026 448.457 23.3885 451.237 24.7604C454.053 26.0962 456.238 27.9736 457.79 30.3924C459.379 32.7752 460.173 35.5731 460.173 38.7863C460.173 41.9633 459.379 44.7613 457.79 47.1801C456.238 49.599 454.053 51.4944 451.237 52.8663C448.457 54.2021 445.208 54.87 441.49 54.87ZM441.49 49.3463C443.872 49.3463 445.912 48.913 447.609 48.0466C449.342 47.1801 450.678 45.9707 451.616 44.4183C452.555 42.8298 453.024 40.9524 453.024 38.7863C453.024 36.6201 452.555 34.7608 451.616 33.2084C450.678 31.6199 449.342 30.3924 447.609 29.526C445.912 28.6595 443.872 28.2263 441.49 28.2263C439.143 28.2263 437.103 28.6595 435.37 29.526C433.637 30.3924 432.302 31.6199 431.363 33.2084C430.424 34.7608 429.955 36.6201 429.955 38.7863C429.955 40.9524 430.424 42.8298 431.363 44.4183C432.302 45.9707 433.637 47.1801 435.37 48.0466C437.103 48.913 439.143 49.3463 441.49 49.3463ZM504.646 50.4835H502.155L512.715 23.4607H519.755L507.408 54.1118H500.205L489.374 26.6558H492.136L481.035 54.1118H473.832L461.539 23.4607H468.688L479.302 50.4835H476.648L487.262 23.4607H494.302L504.646 50.4835ZM522.659 23.4607H529.699L531.54 34.5081V54.1118H524.5V33.4792L522.659 23.4607ZM543.725 22.7026C546.613 22.7026 549.068 23.2802 551.09 24.4355C553.112 25.5908 554.646 27.2515 555.693 29.4177C556.776 31.5477 557.318 34.129 557.318 37.1617V54.1118H550.278V38.2989C550.278 35.0858 549.519 32.6669 548.003 31.0423C546.523 29.3816 544.339 28.5512 541.451 28.5512C539.465 28.5512 537.714 29.0025 536.198 29.905C534.717 30.7715 533.562 31.999 532.732 33.5875C531.937 35.176 531.54 37.0353 531.54 39.1654L529.049 37.8115C529.374 34.6345 530.205 31.9268 531.54 29.6884C532.876 27.4501 534.591 25.7352 536.685 24.5438C538.779 23.3163 541.126 22.7026 543.725 22.7026Z" fill="white"/>
<path d="M107.192 125.155C106.376 132.668 103.721 139.324 99.2295 145.123C94.8193 150.84 89.0207 155.291 81.8338 158.476C74.6468 161.661 66.4389 163.254 57.2101 163.254C46.9196 163.254 37.8951 161.253 30.1364 157.251C22.3777 153.249 16.3341 147.696 12.0056 140.59C7.67702 133.403 5.51275 125.073 5.51275 115.599C5.51275 106.125 7.67702 97.8359 12.0056 90.7306C16.3341 83.5436 22.3777 77.9492 30.1364 73.9473C37.8951 69.9455 46.9196 67.9445 57.2101 67.9445C66.4389 67.9445 74.6468 69.5371 81.8338 72.7222C89.0207 75.9074 94.8193 80.3584 99.2295 86.0754C103.721 91.7923 106.376 98.4484 107.192 106.044H90.8992C90.0008 101.144 88.0407 96.9375 85.0189 93.4257C82.0788 89.9139 78.2403 87.2187 73.5034 85.3403C68.7665 83.3802 63.2946 82.4002 57.0876 82.4002C49.9006 82.4002 43.6528 83.7478 38.3443 86.4429C33.1174 89.138 29.0747 92.9765 26.2162 97.9584C23.3577 102.94 21.9285 108.821 21.9285 115.599C21.9285 122.378 23.3577 128.258 26.2162 133.24C29.0747 138.222 33.1174 142.06 38.3443 144.756C43.6528 147.451 49.9006 148.798 57.0876 148.798C63.2946 148.798 68.7665 147.859 73.5034 145.981C78.2403 144.102 82.0788 141.407 85.0189 137.895C88.0407 134.302 90.0008 130.055 90.8992 125.155H107.192ZM184.874 161.539L182.179 135.813L185.364 126.87L182.179 118.049L184.874 92.2006H201.29L197.615 126.87L201.29 161.539H184.874ZM189.775 126.87C188.223 134.138 185.65 140.509 182.057 145.981C178.463 151.453 174.012 155.699 168.704 158.721C163.477 161.743 157.637 163.254 151.185 163.254C144.407 163.254 138.404 161.743 133.177 158.721C127.95 155.618 123.867 151.33 120.926 145.858C117.986 140.386 116.516 134.057 116.516 126.87C116.516 119.601 117.986 113.272 120.926 107.881C123.867 102.409 127.95 98.1626 133.177 95.1408C138.404 92.0373 144.407 90.4856 151.185 90.4856C157.637 90.4856 163.477 91.9965 168.704 95.0183C174.012 98.0401 178.463 102.287 182.057 107.759C185.732 113.149 188.305 119.519 189.775 126.87ZM132.687 126.87C132.687 131.525 133.626 135.649 135.505 139.243C137.465 142.755 140.119 145.531 143.467 147.573C146.816 149.533 150.654 150.513 154.983 150.513C159.393 150.513 163.477 149.533 167.234 147.573C170.99 145.531 174.298 142.755 177.157 139.243C180.097 135.649 182.424 131.525 184.139 126.87C182.424 122.215 180.097 118.131 177.157 114.619C174.298 111.026 170.99 108.249 167.234 106.289C163.477 104.247 159.393 103.226 154.983 103.226C150.654 103.226 146.816 104.247 143.467 106.289C140.119 108.249 137.465 111.026 135.505 114.619C133.626 118.131 132.687 122.215 132.687 126.87ZM213.309 92.2006H229.235L233.4 117.192V161.539H217.474V114.864L213.309 92.2006ZM260.964 90.4856C267.497 90.4856 273.051 91.7923 277.625 94.4057C282.198 97.0192 285.669 100.776 288.037 105.676C290.488 110.495 291.713 116.334 291.713 123.195V161.539H275.787V125.767C275.787 118.499 274.072 113.027 270.642 109.351C267.293 105.595 262.352 103.716 255.819 103.716C251.327 103.716 247.366 104.737 243.935 106.779C240.587 108.739 237.974 111.516 236.095 115.109C234.298 118.703 233.4 122.909 233.4 127.727L227.765 124.665C228.5 117.478 230.378 111.352 233.4 106.289C236.422 101.225 240.301 97.3459 245.038 94.6508C249.775 91.874 255.083 90.4856 260.964 90.4856ZM342.901 154.433H336.776L365.197 92.2006H382.225L348.414 161.539H330.528L296.716 92.2006H314.235L342.901 154.433ZM452.855 161.539L450.16 135.813L453.345 126.87L450.16 118.049L452.855 92.2006H469.271L465.596 126.87L469.271 161.539H452.855ZM457.756 126.87C456.204 134.138 453.631 140.509 450.038 145.981C446.444 151.453 441.993 155.699 436.685 158.721C431.458 161.743 425.618 163.254 419.166 163.254C412.388 163.254 406.385 161.743 401.158 158.721C395.931 155.618 391.848 151.33 388.907 145.858C385.967 140.386 384.497 134.057 384.497 126.87C384.497 119.601 385.967 113.272 388.907 107.881C391.848 102.409 395.931 98.1626 401.158 95.1408C406.385 92.0373 412.388 90.4856 419.166 90.4856C425.618 90.4856 431.458 91.9965 436.685 95.0183C441.993 98.0401 446.444 102.287 450.038 107.759C453.713 113.149 456.286 119.519 457.756 126.87ZM400.668 126.87C400.668 131.525 401.607 135.649 403.486 139.243C405.446 142.755 408.1 145.531 411.448 147.573C414.797 149.533 418.635 150.513 422.964 150.513C427.374 150.513 431.458 149.533 435.215 147.573C438.971 145.531 442.279 142.755 445.138 139.243C448.078 135.649 450.405 131.525 452.12 126.87C450.405 122.215 448.078 118.131 445.138 114.619C442.279 111.026 438.971 108.249 435.215 106.289C431.458 104.247 427.374 103.226 422.964 103.226C418.635 103.226 414.797 104.247 411.448 106.289C408.1 108.249 405.446 111.026 403.486 114.619C401.607 118.131 400.668 122.215 400.668 126.87ZM556.386 140.468C556.386 145.123 555.079 149.166 552.466 152.596C549.852 156.026 545.891 158.68 540.583 160.559C535.274 162.356 528.618 163.254 520.614 163.254C512.366 163.254 505.22 162.233 499.176 160.191C493.132 158.068 488.436 155.128 485.088 151.371C481.821 147.532 480.065 143.122 479.82 138.14H495.991C496.481 140.754 497.787 143.081 499.911 145.123C502.116 147.083 504.974 148.594 508.486 149.656C512.08 150.717 516.163 151.248 520.737 151.248C527.352 151.248 532.334 150.472 535.683 148.921C539.031 147.287 540.705 144.837 540.705 141.57C540.705 139.365 539.562 137.691 537.275 136.548C535.07 135.404 530.864 134.547 524.657 133.975L511.059 132.75C503.709 132.097 497.91 130.79 493.663 128.83C489.416 126.788 486.394 124.338 484.598 121.479C482.801 118.539 481.903 115.436 481.903 112.169C481.903 107.432 483.373 103.471 486.313 100.286C489.253 97.1009 493.336 94.6916 498.563 93.0582C503.79 91.3431 509.875 90.4856 516.817 90.4856C524.004 90.4856 530.415 91.5064 536.05 93.5482C541.685 95.5083 546.177 98.2851 549.526 101.879C552.874 105.39 554.753 109.474 555.161 114.129H538.99C538.664 112.251 537.683 110.454 536.05 108.739C534.498 106.942 532.089 105.472 528.822 104.329C525.637 103.104 521.349 102.491 515.959 102.491C510.242 102.491 505.75 103.226 502.484 104.696C499.298 106.166 497.706 108.331 497.706 111.189C497.706 112.986 498.686 114.537 500.646 115.844C502.606 117.069 506.24 117.927 511.549 118.417L529.067 120.009C536.091 120.663 541.563 121.929 545.483 123.807C549.485 125.604 552.302 127.931 553.936 130.79C555.569 133.648 556.386 136.874 556.386 140.468Z" fill="white"/>
<rect x="13" y="8" width="183" opacity="0" height="50" fill="#70C467">
	 <animate
      attributeName="opacity"
      begin="0s"
      dur="1s"
      from="0"
      to="1"
      repeatCount="indefinite" />
</rect>
</svg>
